<?xml version="1.0" encoding="UTF-8"?><svg id="Layer_1" xmlns="http://www.w3.org/2000/svg" viewBox="0 0 543.45 544.59"><defs><style>.cls-1{fill:#3ab2fe;}.cls-2{fill:#fff;}.cls-3{fill:#066ddc;}</style></defs><path class="cls-2" d="M477.12,429c.42,2.66,2.55,7.42,4,10,.39,1.65,1.06,3.32,2,5,.64.78.99,1.88,1,3,.88,1.34,1.88,2.67,3,4,.14.28-.08.7,0,1l2,4c.61,1.69,1.98,3.12,2,5,.81.9,1.82,1.23,3,1,1.08-2.48,1.63-5.69,3-8,.98-3.53,2.69-6.53,5.13-9,.13-.28-.03-.7.05-1-.52-1.18.83-2.43,1.85-3,.2-1.06.61-2,.96-3,.33-1.74,1-3.07,2-4l2-5c.39-1.31,1.68-1.47,2,0,6.86-.83,14.18-.81,21,0,.28-.87.62-.86,1,0,.14-.19.28-.35.44-.37,2.14-.31,6.63-.8,7.56.37l.63.31c.25,16.32.38,32.56.37,48.69.92.9.8,3.86,0,5-6.18.57-12.62.73-19.3.48l-.28-37.17c-1.19-.92-2.33-.35-3.42,1.69-1.26,5.2-4.78,9.62-7.15,14.73l-3.85,8.27c-1.19.79-1.86,2.12-2,4-1,1.4-2,2.4-3,3,.43,1.17-.22,2.89-1,4-4.51,2.32-14.44,2.5-19,0-1.09-1.19-2.33-3.32-2-5-1.08-.61-2.14-1.81-2-3-2.97-5.09-5.72-10.57-8-16-.69-1.01-.87-2.28-2-3l-2-5c-.89-1.02-1.59-2.75-2-4l-1.8-1.24c-.54,12.6-.94,25.35-1.2,38.24-5.72.83-13.09.79-19,0-.82-17.35-.88-36.17,0-54,10.39-1.4,22.49-1.58,33.33-1.04.24.01.46.46.67,1.04Z"/><path class="cls-2" d="M130.12,429c2.54-.69,7.25-.98,9,1,3.84.7,7.51,1.57,11,4l2,5c.85.54.37,2.52,1,3-.02,1.33-.16,3.06-1,4,.87,1.4.06,3.61-1,5l-1,2c-1.34.75-2.15,1.76-3,3-1.9.4-3.47.82-5,2l-4,1-1,3c3.07,2.18,5.73,5.02,8,8,3.93,2.49,6.15,6.74,9.75,10.27.54.53,1.69.61,2.21,1.26.36.45-.5,1.18-.99,1.37-7.23,1.02-14.91.81-21.96.1-2-1.58-4-3.25-6-5-2.91-5.59-.1.4-6-8l-5-4-2-3c-1.73-.31-2.4-.98-2-2l-6,1-1.35.41c-4.65-1.94-6.87-.07-6.65,5.59.56.08,1,.17,1.01.3.34,4.34.6,11.34-1.01,14.7-6.12.84-13.88.83-19.61-.12l.61-53.88c15.93-1.68,33.82-.81,50,0Z"/><path class="cls-2" d="M245.12,428l8,2c2.11,1.42,4.71,1.93,7,3,.77,1.33,1.66,2.23,3,3l2.37,5-.31,9.06c-1.54,3.76-4.91,6.41-7.99,9.01-.88.34-2.24.64-4.07.89h-1c-.48,1.44-2.66,1.73-4,1.04l-1.6.98c-10.52.33-20.98.67-31.4,1.02.28.15.5.3.5.45.06,2.52.38,18-.05,18.84-.75,1.48-1.27,2.28-2.45.71-5.94.48-12.13.71-18.57.71l.57-54.71c14.75-.86,30.97-1.23,46.21-1.06.23,0,.46.47.68,1.08.97-.14,2.02-1.02,3.1-1.01Z"/><path class="cls-2" d="M328.12,515c2.96-.24,4.58,3.14,6,5,.51,1.54.51,3.2,0,5-1.36,1.58-1.34,5.09-4,5-1.47,1.38-1.84,2.06-1,4,2.26,1.89,6.48,5.25,4.04,8.03-1.57.67-3.53,1-5.04-.03-1-3.03-4.59-4.69-4.96-8l-4.04-2c-.76,1.57-.98,1.48-.67-.25-2.33-.48-3.44,1.61-3.33,6.25,3.17,4.27-.97,5.63-5,4-.89-2.91-.8-7.17,0-10-.87-4.81-.84-11.09,0-16l.4-1.13s5.87.04,17.6.13Z"/><path class="cls-2" d="M289.12,517l1.55,4.51c.98,2.86,3.2,5.59,3.45,8.49.38,1.54,1.06,2.87,2.04,4l2.96,8c-2.19.88-4.81.97-7,0-.83-1.37-.37-4-2-5-3.2-2.06-7.2-2.39-12-1-.2,2.32-1.85,4.05-3,6-2.18,1.04-6.96,1.08-5-2,2.6-3.97,3.46-8.79,5.46-13.16,1.86-4.07,4.09-7.84,4.54-11.84,2.98-1.01,7.74-1.23,9,2Z"/><path class="cls-2" d="M182.12,515c3.46,0,3.44,5.04,4.8,7.67,2.99,5.78,4.78,12.95,7.27,16.26,1.74,4.73-2.31,4.15-6.07,3.07-.26-1.98-.7-4.26-2-6-3.87-.77-8.16-.98-12,0-.12.62.24,1.39.05,2-1.18.86-1.87,2.19-2.05,4-2.33.86-7.95,1.49-6-2,2.1-4.5,4.96-9.01,4.94-14l3.07-2.9c.1-.83-1.33-1.71.11-2.99s1.95-3.43,1.88-5.12c1.88-.86,4.12-.87,6,0Z"/><path class="cls-2" d="M365.12,515c2.81-2.07,3.92,4.04,1,4-4.44.62-9.11.83-13.99.62-1.2,1.88-.69,4.38-.01,6.38,3.48-.87,8.43-.82,12,0,2.05-.19,2.9,3.15,1,4-5.42,0-10.09.66-14,2,.29,1.81.62,3.81,1,6,3.55-.94,8.14-.75,12,0,1.17-.58,2.85-.72,3.48.14,1,1.38.93,2.76.63,3.86-.34.47-.84.81-1.43.82-6.78.11-14.14-.34-20.67-.82-.78-6.22-.79-13.71,0-20-1.03-1.31-.69-4.23,0-6v-1c6.23-.84,12.96-.79,19,0Z"/><path class="cls-2" d="M223.12,516.04c2.67-.45,3.76,2,5,3.96v6c-.4.55-.86,1.34-1,2-.65,1.3-1.46,2.61-3,2-.56,1.44-2.75,1.83-4,1-2.19,1.44-6.59,1.85-9,1-.39,2.77-.72,5.44-1,8,1.97,3.7-7.02,3.63-5,0-1.35-7.95-.8-16.99,0-25,3.06-.5,15.04-1.45,17.48.18.25.17.4.49.52.86Z"/><path class="cls-2" d="M257.12,515c3.34,0,3.89,2.63,6,5,.6,2.78.27,5.11-1,7,.41,1.54-1.47,3.32-3,4-.78.5-2.19.54-3,1h-10c-.58,3.38-.77,6.82-.57,10.35-1.97.36-3.78.25-5.43-.35-.83-5.39-.78-12.41,0-18-.87-2.42-1.05-6.57,0-9,5.14-.9,11.59-.85,17,0Z"/><path class="cls-2" d="M386.12,515c.35,7.51.69,15.18,1,23,3.91-.67,7.97-.79,12.19-.34l.81,5.34c.02.6-.78,1.68-1.96,1.59-4.63-.34-20.68.23-19.05-1.67.4-.81.74-.78,1.01.08,1.18-.33,1.18-.67,0-1-.87-.28-.73-2.31,0-3,.61-8.09.72-16.23.34-24.42,2.09-.37,3.98-.23,5.66.42Z"/><path class="cls-2" d="M74.12,428l-1,1c-.08.79-.37,1.98-.92,2-22.29.64-46.58.64-68.88,0l-1.2-2c-.96.6-1.42.05-1-1,23.5-2.48,47.57-.04,71.93-1.22.94-.05,1.07.92,1.07,1.22Z"/><path class="cls-2" d="M336.12,429l2,.91.2,51.1c19.3.15,38.54.06,57.73-.29-.76-4.32-.07-7.23,2.06-8.72-.87-.28-.86-.62,0-1,1.11-1.45,2.28,12.71-.57,13.89-.77.32-1.61-.82-2.63-.82l-59.8-.08v-55.99c1.28-.95,1.84-.47,1,1Z"/><path class="cls-2" d="M399.12,428l-1,1-.92,2h-59.88l-1.2-2c0-.49-.58-.9-1-1,0-.36.07-1.01,1.04-1.01h61.93c.96,0,1.04.66,1.04,1.01Z"/><path class="cls-2" d="M165.12,429l2,.91v51.91l-2,1.18c.32.33-.02.66-1,1-1.78-10.53-.3-21.53-.8-32.67l-.21-15.34c-.04-2.94-.53-5.8,1.01-7.99,1.03-.12,1.4,0,1,1Z"/><path class="cls-2" d="M130.12,428c.87.28.86.62,0,1h-50v-1c16.35-1.67,33.6.1,50,0Z"/><path class="cls-2" d="M242.01,429.01h-46.9v-1.01l46.74-1.15c.45.45.26,2.11.15,2.17Z"/><path class="cls-2" d="M543.12,460c-.36,6.07-.69,12.07-1,18-.37.12-.99-.36-.99-1.08v-47.92c-.46-.88-.08-1.19.99-1,2.25,10.33.96,21.3,1,32Z"/><path class="cls-2" d="M330.12,472c-.28.87-.62.86-1,0,0,.78-.19,1.97-.67,2-4.67.25-37.18.53-38.81-.53-.74-.48-.31-1.7.48-2.47l1-1,38.74.09c.46.22.26,1.54.26,1.91Z"/><path class="cls-2" d="M80.12,429v53.97s19,.03,19,.03c.1-.92.45-.87,1,0,.08.82-.93.91-1.93,1.07l-19.3-.1,1.23-55.96v1Z"/><path class="cls-2" d="M195.12,429v53.96s18,.04,18,.04c.87.28.86.62,0,1-6.28-.03-12.22-.16-19.21.47l1.21-56.47v1Z"/><path class="cls-2" d="M270.12,483c.28-.87.62-.86,1,0l.92-2c18.39.16,36.73.06,55.02-.28-.76-4.32-.07-7.23,2.06-8.72h1l-.04,10.76c0,1.36-.84,1.82-1.41,2.01-.46.15-1-.7-1.75-.7l-55.78-.06c-.95,0-1.04-.62-1.03-1Z"/><path class="cls-2" d="M28.12,483c.87.28.86.62,0,1-.38.12-.99-.36-.99-1.07v-42.92s-26.01-.01-26.01-.01c-.46-.29-.43-.62,0-1,.09-.78.35-1.96.9-2,2.89-.22,24.39-.59,25.51.02l2.59,2.67v42.14s-2,1.17-2,1.17Z"/><path class="cls-2" d="M542.12,483c.65.29.64.63,0,1h-19.82s-.23-38.03-.23-38.03l-2.95,2.03c.63-2.61,2.37-4.54,3.86-7.13l.16,42.11,18.98.02Z"/><path class="cls-2" d="M477.12,429h-34v-1c10.48-2.45,21.65-.14,33.04-1.15,1.28-.11.87,1.61.96,2.15Z"/><path class="cls-2" d="M28.12,484v-1l.87-2,16.09-.02.04-39.8,2-1.18c.3-.51.64-.5,1,0v43.97s-20,.03-20,.03Z"/><path class="cls-2" d="M356.12,441c-.24.9-.58.88-1,0-3.31-1.06-1.98-2.88,1.01-4.01,13.36.14,26.67.05,39.93-.26-.71-3.94-.02-6.51,2.06-7.73.3-.36.64-.69,1-1l-.07,11.8c-14.7,1.16-29.09-1.3-42.93,1.2Z"/><path class="cls-2" d="M443.12,429v54c-.3.62-.63.6-1,0,.68-18.38-1.35-36.99,1-55v1Z"/><path class="cls-2" d="M271.12,429l2,.91v51.91l-2,1.18h-1c.68-18.38-1.35-36.99,1-55,.87.28.86.62,0,1Z"/><path class="cls-2" d="M398.12,471v1c-.57,3.13-9.16,2.99-10,0-10.7-.33-21.37-.66-32-1-.58-.3-.56-.63,0-1l34-.06c3.01,0,5.57.25,8,1.06Z"/><path class="cls-2" d="M465.12,446l-1.98-.92-.03,37.86c0,.7-.6,1.18-.98,1.06-.87-.28-.86-.62,0-1l.07-42.11c1.63,1.65,2.34,3.31,2.93,5.11Z"/><path class="cls-2" d="M185.12,483h-1l-2-.92v-44.88l2-1.2c.28-.87.62-.86,1,0v47Z"/><path class="cls-2" d="M291.12,470c-.3.36-.64.69-1,1-.78,0-1.97-.19-2-.67-.59-10.55-.69-24.87,0-35.34-.64-3.29.02-5.28,2-5.98-.45-.88-.08-1.19,1-1v42Z"/><path class="cls-2" d="M185.12,428l-1,1c-.1.77-.28,1.86-.88,2-1.2.28-15.29.27-16.72,0l-1.41-2c0-.49-.58-.9-1-1,2.62-.8,21-1.95,21,0Z"/><path class="cls-2" d="M394.12,448c.58.3.56.63,0,1,0,.78-.19,1.97-.67,2-4.66.25-37.13.54-38.77-.5-.67-.43-.24-1.68.44-2.5.28-.87.62-.86,1,0h38Z"/><path class="cls-2" d="M291.12,428c-.36.31-.7.64-1,1-.1.77-.28,1.86-.88,2-1.2.28-15.29.27-16.72,0l-1.41-2v-1c-1.08-1.44,20-1.69,20,0Z"/><path class="cls-2" d="M248.12,461c.87.28.86.62,0,1-.81.2-1.67,1.01-3.01,1.01h-28.99c-.28.86-.62.85-1-.01-.12-.42.35-.95,1.06-.95l26.9-.14,5.05-.91Z"/><path class="cls-2" d="M540.12,427l-.05,1.18c-2.41.12-4.73.39-6.95.82h-1c-6.76-.9-14.23-.86-21,0h-2c-.06-.31.07-1.98,1.03-1.98l29.97-.02Z"/><path class="cls-2" d="M386.12,514c.55.3.54.64,0,1-1.48.04-2.97-.22-4.99.13l-.05,22.82c0,.69-.56,1.16-.96,1.05-.33-6.82-.66-13.82-1-21,0-1.15-.21-2.31.14-3.93,2.57-.26,4.7.02,6.86-.07Z"/><path class="cls-2" d="M389.12,460c.87.28.86.62,0,1h-33c-.47-.31-.46-.64,0-1,.09-.78.35-1.97.9-2,9.03-.57,21.61-.56,30.64,0l1.46,2Z"/><path class="cls-2" d="M100.12,483c-.33-.05-.67,0-1,0v-15l1-2c.78-.08,1.01.91,1.02,1.95l.03,13.12c0,1.12-.18,2.07-1.05,1.93Z"/><path class="cls-2" d="M205.12,515v25c-.28.87-.62.86-1,0,.66-2.24-.95-7.17-.68-10.09.5-5.24.78-10.08.68-14.91.31-.46.64-.45,1,0Z"/><path class="cls-2" d="M73.12,439c.53.3.52.64,0,1h-26c-.76-.71-1.24-1.88-.57-2.37,1.22-.89,22.06-.87,25.14-.63l1.43,2Z"/><path class="cls-2" d="M380.12,539v3c.87.28.86.62,0,1-.34.02-.68-.04-1.01-.08v-24.92c.79-.07,1.04.92,1.04,1.95l-.02,19.05Z"/><path class="cls-2" d="M213.12,484v-1c.76-.06,2.08-.05,2.07-1.9l-.07-18.1h1l-.02,19.92c0,.96-.81,1.59-1.44,1.9-.45.22-1.02-.82-1.53-.82Z"/><path class="cls-2" d="M542.12,484v-6l-.02-16.05c0-1.03.25-2.03,1.02-1.95l.09,23.01c0,.89-.79.99-1.09.99Z"/><path class="cls-2" d="M479.12,474c-.29.67-.63.66-1,0l-7.4-14.71c-.69-.71-.61-1.37.4-1.29,3.34,4.9,5.99,10.42,8,16Z"/><path class="cls-2" d="M368.22,542c-.21.8-.93,1.77-1.57,1.64l-2.52-.53-18.01-.1c-.51-.3-.5-.64,0-1h22.1Z"/><path class="cls-2" d="M387.12,537c.87.28.86.62,0,1-.4.12-.97-.36-.97-1.05l-.03-21.95v-1c.35-.01,1.02.1,1.02.98l-.02,22.02Z"/><path class="cls-2" d="M156.08,482.9c-6.84,2.64-14.64.32-21.96,1.1-.4-.31-.39-.65,0-1l21.96-.1Z"/><path class="cls-2" d="M346.12,542v1c-.4.12-.97-.36-.97-1.05l-.03-19.95c.28-.87.62-.86,1,0v20Z"/><path class="cls-2" d="M502.12,482c.52.28.5.62,0,1-3.46,1.55-16.93,1.63-19,0v-1c.05,1.49,18.95,1.49,19,0Z"/><path class="cls-2" d="M366.12,519c.87.28.86.62,0,1h-13.86c-.37,2.03-.14,3.51-.14,5,.87.28.86.62,0,1-1.52-1-1.86-6.08-.11-6.8l14.11-.2Z"/><path class="cls-2" d="M184.12,483h1c-6.69,2.39-14.05.3-21,1,.1-.42.51-1,1-1,.1-.77.3-1.89.88-2,1.37-.26,15.48-.29,16.72,0l1.41,2Z"/><path class="cls-2" d="M365.12,514c.87.28.86.62,0,1h-19c5.67-2.33,12.5-.35,19-1Z"/><path class="cls-2" d="M328.12,515c-6,.48-12.37-1.24-18,1-.26.91-.6.89-1,0,0-.53-.33-2.01.92-2.01l16.13-.02c1.03,0,2.02.26,1.95,1.03Z"/><path class="cls-2" d="M223.12,516.04c-.97-.7-2.29-1.08-3.93-1.07l-14.07.03h-1c-.07-.79.91-1.01,1.95-1.02l14.18-.07c.88,0,1.5.02,2.09.34.49.26.74,1.08.78,1.79Z"/><path class="cls-2" d="M462.12,483v1l-19.02.02c-.88,0-1-.66-.98-1.02h20Z"/><path class="cls-2" d="M240.12,542c.87.28.86.62,0,1-.37.12-1-.36-1-1.04v-17.96c.28-.87.61-.86,1,0v18Z"/><path class="cls-2" d="M256.12,532c-3.03,1.73-6.61.81-10,1v-1c2.67-1.76,7.34-1.72,10,0Z"/><path class="cls-2" d="M400.12,543c-1.72-.37-.38-3.63-1.27-4.69-3.62-.83-8.2-.06-11.73-.31v-1h12.9c.3,2.37.02,4.17.1,6Z"/><path class="cls-2" d="M257.12,515h-17c-.28.87-.62.86-1,0-.07-.77.91-1.02,1.95-1.02h14.1c1.04,0,2.03.25,1.95,1.02Z"/><path class="cls-2" d="M107.12,462c-1.41,1.93-3.69.52-5.77.39-1.35.27-1.31,2.66-1.23,3.61.07.78-.13,1.82-1,2,0-2.13-.12-4.37.08-7,3.06-.45,5.35.97,7.92,1Z"/><path class="cls-2" d="M365.12,530c.28-.87.62-.86,1,0l-14,2c-.26.86-.59.84-1,0-.07-.53-.29-2,.91-2h13.09Z"/><path class="cls-2" d="M265.18,450.06c-2.05-2.35-1.62-6.69.31-9.06,1.35,2.85.86,6.18-.31,9.06Z"/><path class="cls-2" d="M310.12,532c-.28.87-.62.86-1,0v-16c.31-.07.71.12,1,0v16Z"/><path class="cls-2" d="M246.12,533l-.03,9.89-5.97.11v-1c1.46-.03,3.08.22,4.9-.14.87-3.51-1.29-7.2,1.1-9.86v1Z"/><path class="cls-2" d="M145.12,470c-3.17-2.01-5.68-5.11-8-8,.29-.65.63-.63,1,0,2.7,2.22,6.28,4.47,7,8Z"/><path class="cls-2" d="M310.12,543c-.47-.31-.45-.64,0-1,1.31-.27,3.31.68,4.66-.37.96-.75.16-2.78.34-3.63.28-.87.62-.86,1,0,.36,1.12,1.99,3.58.65,4.62-1.91,1.12-4.68.02-6.65.38Z"/><path class="cls-2" d="M220.12,531c.87.28.86.62,0,1-2.52,1.84-5.9.76-9,1v-1c3.08.15,5.9-1.42,9-1Z"/><path class="cls-2" d="M502.25,445c-1.45,3.17-3.39,6.05-5.13,9,.54-3.3,1.57-8.25,5.13-9Z"/><path class="cls-2" d="M290.12,537c-3.63-1.96-7.97-.63-12-1-2.15-1.18,14.65-2.33,12,1Z"/><path class="cls-2" d="M2.12,429c1.43,2.29,2.01,8.9-1,10-.05.33.03.67,0,1-1.44,2.49-1.53-14.07,0-12,.46-.31,1.27.63,1,1Z"/><path class="cls-2" d="M186.12,536h-12c-1.88-1.21,10.59-1.88,12,0Z"/><path class="cls-2" d="M73.12,440v-1c-3.13-.57-2.99-9.16,0-10,.3-.36.64-.69,1-1l.02,9.88c0,1.33-.22,2.18-1.02,2.12Z"/><path class="cls-2" d="M395.12,460h-1c-3.16-.68-3.02-10.05,0-11v-1c.37,0,1.01.09,1.01.98v11.02Z"/><path class="cls-2" d="M364.12,538h-12v-1c3.89.44,8.52-1.1,12,1Z"/><path class="cls-2" d="M188.12,542c1.67-.3,4.05.67,5.75-.44.63-.42-1.05-2.7.33-2.63.71.95.9,1.93,1.83,3.81-2.15-.03-6.3,1.52-7.91-.74Z"/><path class="cls-2" d="M364.12,525c.87.28.86.62,0,1h-12v-1h12Z"/><path class="cls-2" d="M356.12,461v10c.87.28.86.62,0,1-.46,1.08-1.24,1.59-2.01.93-1.58-1.36-1.46-11.74-.22-13.56.52-.76,1.54-.32,2.23.63v1Z"/><path class="cls-2" d="M134.12,483v1c-2.21-1.6-4.7-3.51-6-6,2.77.26,4.52,2.83,6,5Z"/><path class="cls-2" d="M210.12,540c.28-.87.62-.86,1,0,0,.73.26,1.77-.07,2.44-.46.94-6.22.92-6.82.04-.36-.52-.29-1.88-.12-2.48h1c-.16,1.64,1.04,2.15,2.5,2.15s2.66-.48,2.5-2.15Z"/><path class="cls-2" d="M310.12,542v1c-.79.07-1.02-.9-1.01-1.94v-9.06h1.01v10Z"/><path class="cls-2" d="M263.12,527c-.29.83-.62.81-1,0,1.07-2.28-.63-4.9,1-7,1.98,2.22.85,4.47,0,7Z"/><path class="cls-2" d="M319.12,532c-1.11-.84-2.84.85-2.86,1.8-.03,1.2-.47,3.15-.14,4.2h-1c.42-1.95-.74-4.76.34-6.59s2.73.39,3.66.59Z"/><path class="cls-2" d="M289.12,517c-2.33-2.48-5.78-2.12-9-2-.48-1.56,6.44-1.22,8.03-.58.99.4.66,1.66.97,2.58Z"/><path class="cls-2" d="M253.12,430c-2.82-.02-6.29.6-8-2,2.81.03,5.66.43,8,2Z"/><path class="cls-2" d="M240.12,515v9h-1c0-3.03-.56-6.21,0-9h1Z"/><path class="cls-2" d="M542.12,428c-.36.31-.7.64-1,1h-8c-.24-2.01,4.61.18,7-2,.65-.59,1.86.35,2,1Z"/><path class="cls-2" d="M139.12,430c-3.07-.56-5.69-1-9-1v-1l7.07-.04c.87,0,1.59.08,1.89.59.22.37.06,1.03.04,1.45Z"/><path class="cls-2" d="M366.12,520v-1c.85-.56,1.2-1.53,1.11-2.49-.1-1.14-1.05-1.61-2.11-1.51v-1c.71-.07,1.79-.22,2.44.07.97.45.88,5.24.05,5.86-.32.24-1.02.06-1.48.06Z"/><path class="cls-2" d="M228.12,526c-1.34-1.34-1.08-4.54,0-6,1.2,1.9,1.36,4.12,0,6Z"/><path class="cls-2" d="M366.12,530h-1c.17-1.43.14-2.99-1-4v-1c1.4,0,2.12.61,2.61,1.93.54,1.46.72,2.88-.61,3.07Z"/><path class="cls-2" d="M172.12,542c-1.06,1.39-6.98,2.05-7.15-.42-.07-.99.84-.93,1.15-1.58-.01.42-.19,1.1.04,1.45.31.49,1.02.61,1.9.6l4.05-.05Z"/><path class="cls-2" d="M211.12,533v7h-1c.59-2.6-1.34-5.97,1-8v1Z"/><path class="cls-2" d="M122.12,470c-2.36-.08-3.77-2.15-5-4,2.47,0,3.73,2.19,5,4Z"/><path class="cls-2" d="M185.12,436h-1c-3.03-.35-2.89-6.4,0-7,.3-.36.64-.69,1-1v8Z"/><path class="cls-2" d="M483.12,482v1c-1.34-1.06-2.71-4.04-3-6,.29-.69.63-.67,1,0,.59,1.7,2,3.1,2,5Z"/><path class="cls-2" d="M275.12,542c-.92,1.56-2.95.98-5.12,1.01-1.25.02-.95-1.46-.84-2.37.04-.36.47-.4.96-.64-.43,1.48.56,2.07,1.55,2.05l3.45-.05Z"/><path class="cls-2" d="M138.12,459c.87.28.86.62,0,1-.49.24-.72.68-.56,1.01.19.4.38.81.56.99h-1c-.79-.98-2.5-1.16-3.04-2.82,1.72-.43,2.86-.1,4.04-.18Z"/><path class="cls-2" d="M152.12,439c-1.71-1.03-2.03-3.12-2-5,1.45,1.01,3.03,3.41,2,5Z"/><path class="cls-2" d="M299.12,542c-1.14,1.63-5.86,1.9-7,0h7Z"/><path class="cls-2" d="M483.12,444c-.95-1.24-3.78-3.75-2-5,.87,1.54,2.46,2.87,2,5Z"/><path class="cls-2" d="M507.12,434c-.08-1.97-.23-4.32,2-5-.04,1.8-.3,4.02-2,5Z"/><path class="cls-2" d="M356.12,448h-1c-3.03-.35-2.89-6.4,0-7,.33-.04.68.06,1,0v7Z"/><path class="cls-2" d="M504.12,479c-1.07.81-.19,3.19-2,4-.03-.33.05-.67,0-1-.21-1.48.47-2.71,1-4,.89-.46,1.19-.08,1,1Z"/><path class="cls-2" d="M506.12,475c-.95,1.13-.53,2.88-2,4-.3-.37-.63-.7-1-1,.58-1.42,1.25-2.87,3-3Z"/><path class="cls-2" d="M151.12,451c-.05-1.73.7-3.33,1-5,.28-.87.62-.86,1,0-.07,1.96.34,4.36-2,5Z"/><path class="cls-2" d="M487.12,451c-2.09.21-2.99-2.15-3-4,2.24-.33,2.2,2.39,3,4Z"/><path class="cls-2" d="M330.12,530c-.77,1.19-1.02,2.6-1,4-.78-.65-1.78-1.88-1.97-2.75-.35-1.53,2.02-1.28,2.97-1.25Z"/><path class="cls-2" d="M259.12,531l3-4h1c-.7,2.08-1.28,4.03-4,4Z"/><path class="cls-2" d="M115.12,463c-1.98-.24-4.73.9-6-1,1.05-.47,2.38-.8,4-1,1.11.15,1.45,1.18,2,2Z"/><path class="cls-2" d="M507.12,434c.06,1.53-.75,3.18-2,4,.33-.93-.42-2.11.12-3.29.34-.73,1.26-.35,1.88-.71Z"/><path class="cls-2" d="M494.12,462c-.29.67-.66,1.18-1,1.56-.75.84-1.9.58-1.98-.11-.12-.99-.01-1.76-.02-2.45.92.54,1.95.85,3,1Z"/><path class="cls-2" d="M508.12,471c-.73,1.56-.84,2.62-2,4-.1-.89-.03-1.65-.01-2.51.02-1.1.73-1.9,2.01-1.49Z"/><path class="cls-2" d="M113.12,461c-1.01,1.15-2.58,1-4,1h-2c1.61-1.54,3.94-1.01,6-1Z"/><path class="cls-2" d="M394.12,460h1c-1.09,1.84-4.04,1-6,1v-1c.07-2.99,4.46-2.76,5,0Z"/><path class="cls-2" d="M252.12,459.96c.4,1.34-.36,1.99-1.47,2.11-.85.09-1.74-.26-2.53-.07v-1c1.31-.24,2.65-1.04,4-1.04Z"/><path class="cls-2" d="M334.12,525c-1.53-1.33.64-3.35,0-5,1.35,1.77,1.54,3.21,0,5Z"/><path class="cls-2" d="M257.19,459.07c-.62.53-1.12,1.18-2.03,1.56-.73.31-1.54.17-2.05-.68,1.01-.45,2.04-.79,3.28-1.9.61-.07.87.6.79,1.01Z"/><path class="cls-2" d="M333.16,542.03c-1.32,1.5-4.42,1.83-5.04-.03l5.04.03Z"/><path class="cls-2" d="M346.12,522h-1c0-1.98-.74-4.73,1-6v6Z"/><path class="cls-2" d="M489.12,456c-1.43-.71-3.42-2.54-2-4,1.63.74,1.49,2.58,2,4Z"/><path class="cls-2" d="M182.12,515h-6c1.25-1.68,4.75-1.68,6,0Z"/><path class="cls-2" d="M469.12,455c-1.66-1.06-2.06-3.15-2-5,1.26,1.44,2.36,2.87,2,5Z"/><path class="cls-2" d="M296.16,534c-2.54-.59-1.91-2.57-2.04-4,1.31.84,1.53,2.62,2.04,4Z"/><path class="cls-2" d="M153.12,446h-1c.24-1.33-.67-3.38,1-4,1.5,1.14.05,2.5,0,4Z"/><path class="cls-2" d="M352.12,537v1c-1.91-1.27-.74-4.02-1-6,.27-.09.75.04,1,0v5Z"/><path class="cls-2" d="M224.12,531c-.67,1.01-2.94.71-4,1v-1c1.36.18,2.89-.26,4-1,.87.28.86.62,0,1Z"/><path class="cls-2" d="M504.16,441c-.22,1.14-1.11,2.17-1.85,3-1.08-.46-.76-1.26-.47-1.81.47-.9,1.56-1.47,2.32-1.19Z"/><path class="cls-2" d="M323.16,534c-1.81.21-2.82-1.08-4.04-2,1.4.3,3.8-.11,4.04,2Z"/><path class="cls-2" d="M481.12,477h-1c-.8-.8-1.47-1.95-2-3h1c.54.93,1.6,1.85,2,3Z"/><path class="cls-2" d="M224.12,531v-1l3-2-.45,2.04c-.25,1.13-2.17.39-2.55.96Z"/><path class="cls-2" d="M174.17,538c-.46,1.5-1.14,2.8-2.05,4-.12-.89-.01-1.66,0-2.49,0-1.18.76-1.92,2.06-1.51Z"/><path class="cls-2" d="M150.12,453c-.58,1.15-1.6,2.7-3,3,0-.69.06-1.44.48-2.03.57-.8,1.59-1.01,2.52-.97Z"/><path class="cls-2" d="M263.12,436c-.69,0-1.44-.06-2.03-.48-.8-.57-1.01-1.59-.97-2.52,1.38.65,2.35,1.64,3,3Z"/><path class="cls-2" d="M174.13,523.1c-.19,1.47-1.62,3.08-3.07,2.9,0-1.43,1.7-3.29,3.07-2.9Z"/><path class="cls-2" d="M142.12,458c-1.01,1.19-2.62,1.4-4,2v-1c.65-1.64,3.14-.34,4-1Z"/><path class="cls-2" d="M532.12,429h-21c-.08-.77.92-1.03,1.95-1.03h17.1c1.04,0,2.02.25,1.95,1.03Z"/><path class="cls-2" d="M128.12,440c1.37-.12,2.58.69,3,2,1.04,1.26.72,4.26,0,6-.68.22-1.31.82-2,1-9.25.87-18.99.79-28,0-1.66-1.34-1.56-7.46,0-9,8.42-.83,18.38-.81,27,0Z"/><path class="cls-2" d="M129.12,449c-9.46,2.5-19.16.06-29,1.2-.77.09-1.19-1.07-1-1.2.32-2.66,1.24-2.54,2,0h28Z"/><path class="cls-2" d="M128.12,439c.87.28.86.62,0,1h-27c-.88.45-1.19.08-1-1h28Z"/><path class="cls-2" d="M101.12,440v9h-2v-9.03c0-.89.62-.97,1-.97.31.36.64.7,1,1Z"/><path class="cls-2" d="M131.12,448v-6c.29-.73.62-.71,1,0,.15,1.75.56,5.51-1,6Z"/><path class="cls-2" d="M132.12,442h-1c-1.16-.4-2.22-1.05-3-2v-1c1.68,0,3.9,1.86,4,3Z"/><path class="cls-2" d="M240.12,440c1.84.59,3.17,1.59,4,3,.94,1.95.56,4.44-1,6-.63.25-1.49.56-2,1-2.87.71-5.54.71-8,0-5.13.87-11.77.84-17,0-.88-2.91-.8-7.17,0-10,7.66-.82,16.08-.82,24,0Z"/><path class="cls-2" d="M240.12,440h-24c-.28.87-.62.86-1,0-.09-.61.96-1.25,1.96-1.14,8.03.9,15.86-1.21,23.04,1.14Z"/><path class="cls-2" d="M233.12,450c.87.28.86.62,0,1h-17c-.47-.31-.45-.64,0-1h17Z"/><path class="cls-2" d="M216.12,450v1c-.8.07-1.01-.9-1.01-1.94v-9.06h1.01v10Z"/><path class="cls-2" d="M241.12,450c-2.14,1.82-5.28,1-8,1v-1c2.7,0,5.52-.7,8,0Z"/><path class="cls-2" d="M243.12,449c.55-1.97,1-3.94,1-6-.48-.31-.46-.64,0-1,1.25,2.29,2.14,5.76-1,7Z"/><path class="cls-2" d="M244.12,442v1c-1.43-.87-2.88-1.74-4-3,2,.65,2.87-.06,4,2Z"/><path class="cls-2" d="M322.12,520c1.33-1.02,4.06-.61,5,1,.67,1.98,1.16,3.99-1,5-2.07.8-3.3,2-5,2-1.73-.33-3.4-.66-5-1-.97-2.03-.93-4.96,0-7,1.29-.86,4.48-.76,6,0Z"/><path class="cls-2" d="M316.12,520v7c.87.28.86.62,0,1-1.73-2.3-1.73-6.7,0-9,.87.28.86.62,0,1Z"/><path class="cls-2" d="M322.12,519c.87.28.86.62,0,1h-6v-1h6Z"/><path class="cls-2" d="M327.12,521c-1.51-1-3.25-1-5-1v-1c3.02,0,4.9-.18,5,2Z"/><path class="cls-2" d="M326.12,526c.96-1.47,1.14-3.27,1-5,.04.92,1.65,1.88,1.22,3.53s-.94.98-2.22,1.47Z"/><path class="cls-2" d="M321.12,528h-5v-1c1.66.13,4.05-.73,5,1Z"/><path class="cls-2" d="M287.12,530c-1.41.84-4.29.89-6,0l2.87-8.59c2.82,2.38,3.6,5.89,3.13,8.59Z"/><path class="cls-2" d="M287.12,530c.36.06,1.06.05.89,1.04-2.44-.66-5.76,1.33-6.89-1.04h6Z"/><path class="cls-2" d="M180.12,531c-1.86-.13-2.86-.8-3-2l2.06-3.94c-.64-1.64.68-3.46,1.94-1.73,1.38,1.62,3.08,4.57,2.44,7.02-1,.45-2.8.19-3.44.65Z"/><path class="cls-2" d="M181.12,523.33c-.96.22-1.51.91-1.94,1.73-1.48-.1-.98-1.56-.63-2.12.5-.81.72-2.38,2.09-2.66.88-.18.87,2.42.47,3.05Z"/><path class="cls-2" d="M180.12,531l-3.92-.06c-.48-1.33.12-1.77.92-1.94.92.67,2.02,1.43,3,2Z"/><path class="cls-2" d="M220.12,520c.28.54.29,1.63.84,2,.74,1.16.76,2.74.16,4,1.35,2.45-7.9,1.27-9,2-2.26-1.29-1.77-5.63-1-8,2.82-1.14,6.13-.68,9,0Z"/><path class="cls-2" d="M220.12,520h-9c-.28.87-.62.86-1,0,2.65-1.73,7.35-1.73,10,0Z"/><path class="cls-2" d="M212.12,528c-.61.18-1.96.22-1.97-.96l-.03-7.04h1c.03,2.72-.51,5.61,1,8Z"/><path class="cls-2" d="M221.12,526c-.72-1.29-.17-2.63-.16-4,.83.57,1.45,1.21,1.25,2.42-.1.58-.09,1.7-1.09,1.58Z"/><path class="cls-2" d="M255.12,520c.42.64.78.82,1,1,.84,1.58.8,3.47.07,5.1-.85.8-1.66.56-2.07.9-2.51.74-5.68.92-8,0-.88-1-.77-6.81-.3-7.33.41-.45,8.06-.32,9.3.33Z"/><path class="cls-2" d="M255.12,520l-8.92.04c-.27,2.4-.08,4.27-.08,6.96.87.28.86.62,0,1-1.97-2.3-1.05-6.31-.61-9.14l8.57.23c.7.02,1.15.43,1.04.91Z"/><path class="cls-2" d="M254.12,527c-2.51,2.06-5.45.64-8,1v-1h8Z"/><path class="cls-2" d="M256.18,526.1l-.07-5.1c1.88,1.54,1.32,3.92.07,5.1Z"/><path class="cls-2" d="M380.12,543v-1c6.03.34,12.04-.68,18.09.51-6.41,1.15-12.26.16-18.09.49Z"/><path class="cls-2" d="M73.12,429v10l-24.95.03c-.69,0-1.17.58-1.05.97v42.97s-19,.03-19,.03v-43.99s-27-.01-27-.01c.46-3.34-1.16-7.03,1-10h71Z"/><path class="cls-2" d="M398.12,429l-.08,10.01-41.98-.02c-1.27,0-.94,1.49-.94,2.01v7c0,.35.09,1.02,1,1.02l38-.02v11h-38c-1.48-2.61-1.48,14.61,0,12,10.08-.84,21.57-.81,32,0h10l-.08,11.01h-61.92s0-54.01,0-54.01h62Z"/><polygon class="cls-2" points="184.12 429 184.12 436 184.12 483 165.12 483 165.12 429 184.12 429"/><path class="cls-2" d="M290.12,429v42c-.16.35.18,1.02,1,1.02l38-.02-.08,11.01h-57.92v-54.01h19Z"/><path class="cls-2" d="M388.12,472h-32v-1l30.94.02c.7,0,1.18.6,1.06.98Z"/><polygon class="cls-3" points="200.21 368.66 347.12 0 502.92 369 401.65 369 351.31 241 300.05 367.86 200.21 368.66"/><polygon points="115.45 378.21 62.67 258.28 162.88 24.91 213.11 141.85 115.45 378.21"/><polygon class="cls-1" points="213.11 141.85 253.61 234.64 200.21 368.66 158.02 275.2 213.11 141.85"/></svg>