<?xml version="1.0" encoding="UTF-8"?><svg id="Layer_1" xmlns="http://www.w3.org/2000/svg" width="549.01" height="564.38" viewBox="0 0 549.01 564.38"><defs><style>.cls-1{fill:#3ab2fe;}.cls-2{fill:#fff;}.cls-3{fill:#066ddc;}</style></defs><polygon class="cls-3" points="201.37 368.66 348.28 0 504.09 369 402.81 369 352.48 241 301.22 367.86 201.37 368.66"/><polygon points="116.62 378.21 63.84 258.28 164.05 24.91 214.28 141.85 116.62 378.21"/><polygon class="cls-1" points="214.28 141.85 254.78 234.64 201.37 368.66 159.19 275.2 214.28 141.85"/><path class="cls-2" d="M27.21,505.51v-49.52H0v-10.29h66.84v10.29h-27.32v49.52h-12.3Z"/><path class="cls-2" d="M129.75,505.51l-14.91-20.58h-23.51v20.58h-12.41v-59.81h41.69c15.68,0,22.53,10.4,22.53,19.62,0,7.4-4.9,14.79-15.02,18.01l15.89,22.19h-14.26ZM91.33,455.98v18.65h26.34c9.14,0,12.52-4.29,12.52-9.33s-3.37-9.33-12.52-9.33h-26.34Z"/><path class="cls-2" d="M159.03,505.51v-59.81h12.41v59.81h-12.41Z"/><path class="cls-2" d="M203.66,484.5v21.01h-12.41v-59.81h40.39c15.68,0,22.21,10.5,22.21,19.4s-6.53,19.4-22.21,19.4h-27.98ZM203.66,456.09v18.12h25.04c8.93,0,12.19-4.5,12.19-9.11s-3.27-9-12.19-9h-25.04Z"/><path class="cls-2" d="M267.55,505.51v-59.81h12.41v49.52h45.39v10.29h-57.8Z"/><path class="cls-2" d="M337.65,505.51v-59.81h61.5v10.18h-48.99v13.72h40.49v10.29h-40.49v15.33h48.99v10.29h-61.5Z"/><path class="cls-2" d="M173.66,558.1h-16.74l-3.41,6.29h-6.11l17.89-31.88,17.89,31.88h-6.11l-3.41-6.29ZM159.86,552.65h10.82l-5.39-9.93-5.43,9.93Z"/><path class="cls-2" d="M193,553.38v11h-5.48v-31.32h17.84c6.93,0,9.81,5.5,9.81,10.16s-2.89,10.16-9.81,10.16h-12.36ZM193,538.51v9.48h11.06c3.94,0,5.39-2.36,5.39-4.77s-1.44-4.71-5.39-4.71h-11.06Z"/><path class="cls-2" d="M226.72,553.38v11h-5.48v-31.32h17.84c6.93,0,9.81,5.5,9.81,10.16s-2.89,10.16-9.81,10.16h-12.36ZM226.72,538.51v9.48h11.06c3.94,0,5.39-2.36,5.39-4.77s-1.44-4.71-5.39-4.71h-11.06Z"/><path class="cls-2" d="M273.57,558.1h-16.74l-3.42,6.29h-6.11l17.89-31.88,17.89,31.88h-6.11l-3.42-6.29ZM259.76,552.65h10.82l-5.39-9.93-5.44,9.93Z"/><path class="cls-2" d="M309.89,564.38l-6.59-10.78h-10.39v10.78h-5.48v-31.32h18.42c6.93,0,9.96,5.44,9.96,10.27,0,3.87-2.16,7.75-6.64,9.43l7.02,11.62h-6.3ZM292.91,538.45v9.77h11.64c4.04,0,5.53-2.25,5.53-4.88s-1.49-4.88-5.53-4.88h-11.64Z"/><path class="cls-2" d="M322.83,564.38v-31.32h27.17v5.33h-21.64v7.18h17.89v5.39h-17.89v8.03h21.64v5.39h-27.17Z"/><path class="cls-2" d="M356.93,564.38v-31.32h5.48v25.93h20.06v5.39h-25.54Z"/><path class="cls-2" d="M447.86,506.21v-59.65h31.64l19,40.69,18.79-40.69h31.71v59.65h-19.64v-46.95l-20.79,46.95h-20.36l-20.71-46.95v46.95h-19.64Z"/></svg>