<?xml version="1.0" encoding="UTF-8"?><svg id="Layer_1" xmlns="http://www.w3.org/2000/svg" width="562" height="582" viewBox="0 0 561.54 581.61"><defs><style>.cls-1{fill:#3ab2fe;}.cls-2{font-family:Arial-BoldMT, Arial;font-size:83.33px;font-weight:700;}.cls-3{font-size:56.12px;}.cls-3,.cls-4{font-family:AvianoSansBold, 'Aviano Sans';}.cls-4{font-size:107.2px;}.cls-5{letter-spacing:-.07em;}.cls-6{letter-spacing:-.03em;}.cls-7{fill:#066ddc;}</style></defs><polygon class="cls-7" points="203.55 368.66 350.46 0 506.26 369 404.99 369 354.65 241 303.4 367.86 203.55 368.66"/><polygon points="118.8 378.21 66.02 258.28 166.23 24.91 216.46 141.85 118.8 378.21"/><polygon class="cls-1" points="216.46 141.85 256.96 234.64 203.55 368.66 161.36 275.2 216.46 141.85"/><text class="cls-4" transform="translate(0 505.51) scale(1.02 1)"><tspan x="0" y="0">TRIPLE</tspan></text><text class="cls-3" transform="translate(149.68 564.38) scale(.86 1)"><tspan x="0" y="0">AP</tspan><tspan class="cls-5" x="80.92" y="0">P</tspan><tspan x="116.55" y="0">ARE</tspan><tspan class="cls-6" x="239.22" y="0">L</tspan></text><text class="cls-2" transform="translate(439.68 506.21) scale(1.76 1)"><tspan x="0" y="0">M</tspan></text></svg>